<svg xmlns="http://www.w3.org/2000/svg" xmlns:xlink="http://www.w3.org/1999/xlink"><symbol id="icon" viewBox="0 0 100 100"><g xmlns="http://www.w3.org/2000/svg" display="none"><g display="inline"><g><path fill-rule="evenodd" clip-rule="evenodd" d="M28.364,73.565V14.317c0-4.066-3.297-7.363-7.364-7.363     s-7.364,3.297-7.364,7.363v59.248C11.285,75.62,9.793,78.633,9.793,82c0,6.189,5.018,11.207,11.207,11.207     S32.207,88.189,32.207,82C32.207,78.633,30.715,75.62,28.364,73.565z" style="fill: inherit;"></path></g></g><g display="inline"><g><circle cx="21" cy="82" r="4.09" style="fill: inherit;"></circle></g></g><g display="inline"><g><path d="M21,38c-1.104,0-2,0.896-2,2v37c0,1.104,0.896,2,2,2s2-0.896,2-2V40C23,38.896,22.104,38,21,38z" style="fill: inherit;"></path></g></g><g display="inline"><g><g><polygon points="53.004,29.149 35.814,39.324 35.814,59.676 53.004,69.851 70.194,59.676 70.194,39.324     " style="fill: inherit;"></polygon></g></g><g><g><path d="M60.983,52.268L57.027,50l3.956-2.268c0.964-0.553,1.294-1.775,0.737-2.732s-1.787-1.284-2.751-0.732l-3.956,2.269V42      c0-1.104-0.901-2-2.014-2s-2.014,0.896-2.014,2v4.536l-3.956-2.269c-0.963-0.552-2.195-0.225-2.751,0.732      s-0.226,2.18,0.737,2.732L48.972,50l-3.956,2.268c-0.963,0.553-1.293,1.775-0.737,2.732s1.788,1.284,2.751,0.732l3.956-2.269V58      c0,1.104,0.901,2,2.014,2s2.014-0.896,2.014-2v-4.536l3.956,2.269c0.964,0.552,2.194,0.225,2.751-0.732      S61.947,52.82,60.983,52.268z" style="fill: inherit;"></path></g></g><g><g><path fill-rule="evenodd" clip-rule="evenodd" d="M59.896,17.518L55,20.345v-3.38l6.896-3.982      c0.957-0.553,1.285-1.775,0.732-2.732s-1.775-1.284-2.732-0.732L55,12.345V7c0-1.104-0.896-2-2-2s-2,0.896-2,2v5.17      l-4.943-2.894c-0.972-0.569-2.214-0.231-2.776,0.754c-0.561,0.985-0.228,2.246,0.744,2.814L51,16.929v3.484l-4.943-2.895      c-0.972-0.569-2.214-0.231-2.776,0.754c-0.561,0.985-0.228,2.246,0.744,2.815L51,25.171V29c0,1.104,0.896,2,2,2s2-0.896,2-2      v-4.035l6.896-3.982c0.957-0.553,1.285-1.775,0.732-2.732S60.854,16.966,59.896,17.518z" style="fill: inherit;"></path></g></g><g><g><path fill-rule="evenodd" clip-rule="evenodd" d="M61.986,87.018l-6.93-3.982v-3.38l4.92,2.827      c0.961,0.552,2.189,0.225,2.745-0.732c0.555-0.957,0.226-2.18-0.735-2.732l-6.93-3.982V71c0-1.104-0.896-2-2-2h-0.02      c-1.104,0-2,0.896-2,2v3.829l-7.007,4.083c-0.976,0.569-1.311,1.83-0.747,2.815c0.564,0.985,1.812,1.323,2.789,0.754      l4.966-2.895v3.484l-7.007,4.084c-0.976,0.568-1.311,1.829-0.747,2.814c0.564,0.985,1.812,1.323,2.789,0.754l4.966-2.894V93      c0,1.104,0.896,2,2,2h0.02c1.104,0,2-0.896,2-2v-5.345l4.92,2.827c0.961,0.552,2.189,0.225,2.745-0.732      C63.276,88.793,62.947,87.57,61.986,87.018z" style="fill: inherit;"></path></g></g><g><g><path fill-rule="evenodd" clip-rule="evenodd" d="M91.507,35.732l-4.896-2.827l4.629-2.673c0.956-0.553,1.284-1.775,0.731-2.732      c-0.552-0.957-1.775-1.284-2.731-0.732l-4.478,2.585l0.035-5.728c0.006-1.126-0.907-2.033-2.041-2.026      c-1.135,0.007-2.06,0.926-2.066,2.052l-0.05,8.082l-3.017,1.742l0.035-5.728c0.007-1.126-0.906-2.033-2.041-2.026      c-1.134,0.007-2.059,0.926-2.066,2.052l-0.049,8.082l-3.315,1.914c-0.956,0.553-1.284,1.775-0.731,2.732      c0.552,0.957,1.775,1.284,2.731,0.732l3.495-2.018l6.896,3.982c0.957,0.552,2.181,0.225,2.732-0.732      c0.553-0.956,0.225-2.18-0.732-2.731l-4.896-2.827l2.929-1.691l6.896,3.982c0.957,0.552,2.181,0.225,2.732-0.732      C92.791,37.508,92.464,36.284,91.507,35.732z" style="fill: inherit;"></path></g></g><g><g><path fill-rule="evenodd" clip-rule="evenodd" d="M91.123,69.845l-4.479-2.585l4.979-2.834c0.979-0.557,1.307-1.802,0.734-2.78      c-0.573-0.979-1.831-1.32-2.81-0.764l-7.023,3.998l-3.018-1.741l4.978-2.834c0.979-0.557,1.309-1.802,0.734-2.78      c-0.572-0.979-1.83-1.32-2.809-0.764l-7.024,3.998l-3.315-1.914c-0.957-0.552-2.18-0.225-2.732,0.732      c-0.553,0.956-0.225,2.18,0.732,2.731l3.494,2.018v7.965c0,1.104,0.896,2,2,2c1.105,0,2-0.896,2-2v-5.655l2.929,1.69v7.965      c0,1.104,0.896,2,2,2s2-0.896,2-2v-5.655l4.63,2.673c0.956,0.553,2.18,0.225,2.731-0.731      C92.406,71.62,92.079,70.397,91.123,69.845z" style="fill: inherit;"></path></g></g></g></g><g xmlns="http://www.w3.org/2000/svg"><g><g><path fill-rule="evenodd" clip-rule="evenodd" d="M30,72.633V14c0-4.971-4.029-9-9-9s-9,4.029-9,9v58.633     C9.539,74.998,8,78.316,8,82c0,7.18,5.82,13,13,13s13-5.82,13-13C34,78.316,32.461,74.998,30,72.633z M21,88     c-3.313,0-6-2.74-6-6.12c0-2.663,1.671-4.923,4-5.765V39.04c0-1.127,0.896-2.04,2-2.04s2,0.913,2,2.04v37.075     c2.329,0.842,4,3.102,4,5.765C27,85.26,24.313,88,21,88z" style="fill: inherit;"></path></g></g><g><g><g><path fill-rule="evenodd" clip-rule="evenodd" d="M53.005,28.01l-19,10.995v21.99l19,10.995l18.999-10.995v-21.99L53.005,28.01z       M60.983,52.268c0.964,0.553,1.294,1.775,0.737,2.732s-1.787,1.284-2.751,0.732l-3.956-2.269V58c0,1.104-0.901,2-2.014,2      s-2.014-0.896-2.014-2v-4.536l-3.956,2.269c-0.963,0.552-2.195,0.225-2.751-0.732s-0.226-2.18,0.737-2.732L48.972,50      l-3.956-2.268c-0.963-0.553-1.293-1.775-0.737-2.732s1.788-1.284,2.751-0.732l3.956,2.269V42c0-1.104,0.901-2,2.014-2      s2.014,0.896,2.014,2v4.536l3.956-2.269c0.964-0.552,2.194-0.225,2.751,0.732s0.227,2.18-0.737,2.732L57.027,50L60.983,52.268z" style="fill: inherit;"></path></g></g><g><g><path fill-rule="evenodd" clip-rule="evenodd" d="M59.896,17.518L55,20.345v-3.38l6.896-3.982      c0.957-0.553,1.285-1.775,0.732-2.732s-1.775-1.284-2.732-0.732L55,12.345V7c0-1.104-0.896-2-2-2s-2,0.896-2,2v5.17      l-4.943-2.894c-0.972-0.569-2.214-0.231-2.776,0.754c-0.561,0.985-0.228,2.246,0.744,2.814L51,16.929v3.484l-4.943-2.895      c-0.972-0.569-2.214-0.231-2.776,0.754c-0.561,0.985-0.228,2.246,0.744,2.815L51,25.171V29c0,1.104,0.896,2,2,2s2-0.896,2-2      v-4.035l6.896-3.982c0.957-0.553,1.285-1.775,0.732-2.732S60.854,16.966,59.896,17.518z" style="fill: inherit;"></path></g></g><g><g><path fill-rule="evenodd" clip-rule="evenodd" d="M61.986,87.018l-6.93-3.982v-3.38l4.92,2.827      c0.961,0.552,2.189,0.225,2.745-0.732c0.555-0.957,0.226-2.18-0.735-2.732l-6.93-3.982V71c0-1.104-0.896-2-2-2h-0.02      c-1.104,0-2,0.896-2,2v3.829l-7.007,4.083c-0.976,0.569-1.311,1.83-0.747,2.815c0.564,0.985,1.812,1.323,2.789,0.754      l4.966-2.895v3.484l-7.007,4.084c-0.976,0.568-1.311,1.829-0.747,2.814c0.564,0.985,1.812,1.323,2.789,0.754l4.966-2.894V93      c0,1.104,0.896,2,2,2h0.02c1.104,0,2-0.896,2-2v-5.345l4.92,2.827c0.961,0.552,2.189,0.225,2.745-0.732      C63.276,88.793,62.947,87.57,61.986,87.018z" style="fill: inherit;"></path></g></g><g><g><path fill-rule="evenodd" clip-rule="evenodd" d="M91.507,35.732l-4.896-2.827l4.629-2.673c0.956-0.553,1.284-1.775,0.731-2.732      c-0.552-0.957-1.775-1.284-2.731-0.732l-4.478,2.585l0.035-5.728c0.006-1.126-0.907-2.033-2.041-2.026      c-1.135,0.007-2.06,0.926-2.066,2.052l-0.05,8.082l-3.017,1.742l0.035-5.728c0.007-1.126-0.906-2.033-2.041-2.026      c-1.134,0.007-2.059,0.926-2.066,2.052l-0.049,8.082l-3.315,1.914c-0.956,0.553-1.284,1.775-0.731,2.732      c0.552,0.957,1.775,1.284,2.731,0.732l3.495-2.018l6.896,3.982c0.957,0.552,2.181,0.225,2.732-0.732      c0.553-0.956,0.225-2.18-0.732-2.731l-4.896-2.827l2.929-1.691l6.896,3.982c0.957,0.552,2.181,0.225,2.732-0.732      C92.791,37.508,92.464,36.284,91.507,35.732z" style="fill: inherit;"></path></g></g><g><g><path fill-rule="evenodd" clip-rule="evenodd" d="M91.123,69.845l-4.479-2.585l4.979-2.834c0.979-0.557,1.307-1.802,0.734-2.78      c-0.573-0.979-1.831-1.32-2.81-0.764l-7.023,3.998l-3.018-1.741l4.978-2.834c0.979-0.557,1.309-1.802,0.734-2.78      c-0.572-0.979-1.83-1.32-2.809-0.764l-7.024,3.998l-3.315-1.914c-0.957-0.552-2.18-0.225-2.732,0.732      c-0.553,0.956-0.225,2.18,0.732,2.731l3.494,2.018v7.965c0,1.104,0.896,2,2,2c1.105,0,2-0.896,2-2v-5.655l2.929,1.69v7.965      c0,1.104,0.896,2,2,2s2-0.896,2-2v-5.655l4.63,2.673c0.956,0.553,2.18,0.225,2.731-0.731      C92.406,71.62,92.079,70.397,91.123,69.845z" style="fill: inherit;"></path></g></g></g></g></symbol></svg>