<svg xmlns="http://www.w3.org/2000/svg" xmlns:xlink="http://www.w3.org/1999/xlink"><symbol id="icon" viewBox="0 0 90 90"><g xmlns="http://www.w3.org/2000/svg"><path d="M22.316,47.019c-1.554,0-2.814-1.259-2.814-2.813v-1.719c0-1.554,1.26-2.813,2.814-2.813h1.537   c1.554,0,2.813,1.259,2.813,2.813v1.719c0,1.554-1.26,2.813-2.813,2.813H22.316z" style="fill: inherit;"></path></g><g xmlns="http://www.w3.org/2000/svg"><path d="M22.316,60.832c-1.554,0-2.814-1.26-2.814-2.813v-1.72c0-1.554,1.26-2.812,2.814-2.812h1.537   c1.554,0,2.813,1.258,2.813,2.812v1.72c0,1.554-1.26,2.813-2.813,2.813H22.316z" style="fill: inherit;"></path></g><g xmlns="http://www.w3.org/2000/svg"><path d="M34.287,47.019c-1.554,0-2.814-1.259-2.814-2.813v-1.719c0-1.554,1.26-2.813,2.814-2.813h1.537   c1.554,0,2.813,1.259,2.813,2.813v1.719c0,1.554-1.26,2.813-2.813,2.813H34.287z" style="fill: inherit;"></path></g><g xmlns="http://www.w3.org/2000/svg"><path d="M34.287,60.832c-1.554,0-2.814-1.26-2.814-2.813v-1.72c0-1.554,1.26-2.812,2.814-2.812h1.537   c1.554,0,2.813,1.258,2.813,2.812v1.72c0,1.554-1.26,2.813-2.813,2.813H34.287z" style="fill: inherit;"></path></g><g xmlns="http://www.w3.org/2000/svg"><path d="M46.258,47.019c-1.554,0-2.814-1.259-2.814-2.813v-1.719c0-1.554,1.26-2.813,2.814-2.813h1.537   c1.554,0,2.814,1.259,2.814,2.813v1.719c0,1.554-1.261,2.813-2.814,2.813H46.258z" style="fill: inherit;"></path></g><g xmlns="http://www.w3.org/2000/svg"><path d="M46.258,60.832c-1.554,0-2.814-1.26-2.814-2.813v-1.72c0-1.554,1.26-2.812,2.814-2.812h1.537   c1.554,0,2.814,1.258,2.814,2.812v1.72c0,1.554-1.261,2.813-2.814,2.813H46.258z" style="fill: inherit;"></path></g><path xmlns="http://www.w3.org/2000/svg" d="M84.959,45.551l-1.086-1.087c-1.1-1.099-2.881-1.1-3.98,0l-10.3,10.301l-3.302-3.302  c-1.1-1.099-2.88-1.099-3.979,0l-1.086,1.087c-1.099,1.1-1.1,2.881-0.001,3.979l6.379,6.378c1.099,1.099,2.879,1.099,3.978,0  l0.489-0.487l0.6-0.6l12.289-12.291C86.058,48.431,86.058,46.65,84.959,45.551z" style="fill: inherit;"></path><g xmlns="http://www.w3.org/2000/svg"><path d="M70.277,70.041H12.135V24.536h6.745v-7.165H9.321H7.784h0c-0.564,0-1.088,0.17-1.529,0.456   c-0.014,0.009-0.03,0.015-0.043,0.024c-0.093,0.062-0.173,0.139-0.257,0.212c-0.052,0.045-0.111,0.083-0.16,0.132   c-0.049,0.048-0.087,0.107-0.132,0.159c-0.073,0.084-0.15,0.165-0.212,0.257c-0.019,0.028-0.03,0.06-0.048,0.088   c-0.079,0.125-0.153,0.252-0.211,0.39c-0.004,0.009-0.005,0.019-0.008,0.027c-0.136,0.33-0.213,0.689-0.213,1.067v0v1.538v51.132   v1.537c0,0.194,0.02,0.384,0.057,0.567c0.262,1.281,1.396,2.246,2.756,2.246h0h1.538h60.956c1.554,0,2.815-1.259,2.815-2.813   v-1.537C73.093,71.301,71.831,70.041,70.277,70.041z" style="fill: inherit;"></path><path d="M70.277,17.372H70.25h-1.509h-9.44v7.165h6.626v19.467c0,1.554,1.261,2.814,2.814,2.814h1.536   c1.554,0,2.815-1.26,2.815-2.814V20.185C73.093,18.631,71.831,17.372,70.277,17.372z" style="fill: inherit;"></path><rect x="30.65" y="17.372" width="16.881" height="7.165" style="fill: inherit;"></rect></g><path xmlns="http://www.w3.org/2000/svg" d="M25.073,13.137h-0.616c-1.554,0-2.814,1.259-2.814,2.813v10.007c0,1.554,1.26,2.813,2.814,2.813h0.616  c1.554,0,2.814-1.26,2.814-2.813V15.95C27.887,14.396,26.627,13.137,25.073,13.137z" style="fill: inherit;"></path><path xmlns="http://www.w3.org/2000/svg" d="M53.724,13.137h-0.616c-1.554,0-2.813,1.259-2.813,2.813v10.007c0,1.554,1.26,2.813,2.813,2.813h0.616  c1.554,0,2.814-1.26,2.814-2.813V15.95C56.538,14.396,55.277,13.137,53.724,13.137z" style="fill: inherit;"></path></symbol></svg>