<svg xmlns="http://www.w3.org/2000/svg" xmlns:xlink="http://www.w3.org/1999/xlink"><symbol id="icon" viewBox="0 0 100 100"><path xmlns="http://www.w3.org/2000/svg" d="M81.008,46.563c0,1.714-1.389,3.102-3.101,3.102h-6.202c-1.712,0-3.101-1.388-3.101-3.102v-6.201  c0-1.714,1.389-3.101,3.101-3.101h6.202c1.712,0,3.101,1.387,3.101,3.101V46.563z" style="fill: inherit;"></path><g xmlns="http://www.w3.org/2000/svg"><rect x="39.664" y="13.178" width="20.672" height="4.135" style="fill: inherit;"></rect><path d="M74.807,13.178h-2.067v4.135h2.067c7.978,0,14.47,6.492,14.47,14.47v49.612c0,7.979-6.492,14.471-14.47,14.471H25.193   c-7.978,0-14.47-6.492-14.47-14.471V31.782c0-7.978,6.492-14.47,14.47-14.47h2.067v-4.135h-2.067   c-10.259,0-18.604,8.346-18.604,18.604v49.612c0,10.26,8.346,18.605,18.604,18.605h49.613c10.259,0,18.604-8.346,18.604-18.605   V31.782C93.411,21.523,85.065,13.178,74.807,13.178z" style="fill: inherit;"></path></g><path xmlns="http://www.w3.org/2000/svg" d="M73.49,15.116h-0.751v6.848c0,3.426-2.778,6.201-6.202,6.201s-6.201-2.775-6.201-6.201v-6.848H39.664v6.848  c0,3.426-2.776,6.201-6.202,6.201s-6.201-2.775-6.201-6.201v-6.848H26.51c-8.646,0-15.657,3.991-15.657,8.915  c0,4.923,7.011,8.914,15.657,8.914h46.98c8.644,0,15.657-3.991,15.657-8.914C89.147,19.107,82.134,15.116,73.49,15.116z" style="fill: inherit;"></path><path xmlns="http://www.w3.org/2000/svg" d="M39.664,13.178v-6.89c0-3.046-2.776-5.513-6.202-5.513s-6.201,2.467-6.201,5.513v6.89H39.664z" style="fill: inherit;"></path><path xmlns="http://www.w3.org/2000/svg" d="M72.739,12.403V5.513C72.739,2.467,69.961,0,66.537,0s-6.201,2.467-6.201,5.513v6.891H72.739z" style="fill: inherit;"></path><line xmlns="http://www.w3.org/2000/svg" fill="none" stroke-width="2" stroke-linecap="round" stroke-miterlimit="10" x1="33.462" y1="21.447" x2="33.462" y2="4.909" style="stroke: inherit;"></line><line xmlns="http://www.w3.org/2000/svg" fill="none" stroke-width="2" stroke-linecap="round" stroke-miterlimit="10" x1="66.537" y1="21.447" x2="66.537" y2="4.909" style="stroke: inherit;"></line><path xmlns="http://www.w3.org/2000/svg" d="M56.201,46.563c0,1.714-1.389,3.102-3.101,3.102h-6.201c-1.712,0-3.102-1.388-3.102-3.102v-6.201  c0-1.714,1.39-3.101,3.102-3.101h6.201c1.712,0,3.101,1.387,3.101,3.101V46.563z" style="fill: inherit;"></path><path xmlns="http://www.w3.org/2000/svg" d="M81.008,67.236c0,1.715-1.389,3.1-3.101,3.1h-6.202c-1.712,0-3.101-1.385-3.101-3.1v-6.203c0-1.713,1.389-3.1,3.101-3.1  h6.202c1.712,0,3.101,1.387,3.101,3.1V67.236z" style="fill: inherit;"></path><path xmlns="http://www.w3.org/2000/svg" d="M56.201,67.236c0,1.715-1.389,3.1-3.101,3.1h-6.201c-1.712,0-3.102-1.385-3.102-3.1v-6.203c0-1.713,1.39-3.1,3.102-3.1  h6.201c1.712,0,3.101,1.387,3.101,3.1V67.236z" style="fill: inherit;"></path><path xmlns="http://www.w3.org/2000/svg" d="M81.008,87.908c0,1.715-1.389,3.1-3.101,3.1h-6.202c-1.712,0-3.101-1.385-3.101-3.1v-6.203c0-1.715,1.389-3.1,3.101-3.1  h6.202c1.712,0,3.101,1.385,3.101,3.1V87.908z" style="fill: inherit;"></path><path xmlns="http://www.w3.org/2000/svg" d="M56.201,87.908c0,1.715-1.389,3.1-3.101,3.1h-6.201c-1.712,0-3.102-1.385-3.102-3.1v-6.203c0-1.715,1.39-3.1,3.102-3.1  h6.201c1.712,0,3.101,1.385,3.101,3.1V87.908z" style="fill: inherit;"></path><path xmlns="http://www.w3.org/2000/svg" d="M31.396,87.908c0,1.715-1.39,3.1-3.102,3.1h-6.201c-1.712,0-3.101-1.385-3.101-3.1v-6.203c0-1.715,1.389-3.1,3.101-3.1  h6.201c1.712,0,3.102,1.385,3.102,3.1V87.908z" style="fill: inherit;"></path><path xmlns="http://www.w3.org/2000/svg" d="M31.396,67.236c0,1.715-1.39,3.1-3.102,3.1h-6.201c-1.712,0-3.101-1.385-3.101-3.1v-6.203c0-1.713,1.389-3.1,3.101-3.1  h6.201c1.712,0,3.102,1.387,3.102,3.1V67.236z" style="fill: inherit;"></path><path xmlns="http://www.w3.org/2000/svg" d="M31.396,46.563c0,1.717-1.39,3.102-3.102,3.102h-6.201c-1.712,0-3.101-1.385-3.101-3.102v-6.201  c0-1.714,1.389-3.101,3.101-3.101h6.201c1.712,0,3.102,1.387,3.102,3.101V46.563z" style="fill: inherit;"></path><path xmlns="http://www.w3.org/2000/svg" d="M31.396,67.236c0,1.715-1.389,3.1-3.101,3.1h-6.201c-1.712,0-3.102-1.385-3.102-3.1v-6.203c0-1.713,1.39-3.1,3.102-3.1  h6.201c1.712,0,3.101,1.387,3.101,3.1V67.236z" style="fill: inherit;"></path></symbol></svg>