<svg xmlns="http://www.w3.org/2000/svg"><symbol id="icon" viewBox="0 0 100 100"><path xmlns="http://www.w3.org/2000/svg" d="M56.34,43.32c1.47-2.59,3.39-4.9,5.8-5.85a5.07,5.07,0,0,1-.55-3,11.84,11.84,0,0,1,2-5.3,11.83,11.83,0,0,1,4.11-3.9c1.64-.87,3.17-.94,4.29-.19s1.64,2.18,1.47,4a11.67,11.67,0,0,1-2,5.29C69.55,37.25,66.94,39,64.84,39a3.23,3.23,0,0,1-1.46-.34c-3.06.72-5.36,4.28-6.91,7.74,0,.54,0,1,0,1.47a26.29,26.29,0,0,1,7.84-1.36h0v0a12.8,12.8,0,0,1,6.52,1.58c2.85-4,9.13-6.65,7-25.18C76,7.31,64.53,5,57.87,5a25.76,25.76,0,0,0-4.78.41C62.83,10,62,21.18,62,21.18s-.62,2-7.4,7.3a11.15,11.15,0,0,0-2.44,2.73c.43.61.87,1.23,1.31,1.88C55.35,35.83,56.08,39.86,56.34,43.32Z" style="fill: inherit;"></path><path xmlns="http://www.w3.org/2000/svg" d="M64.3,48a25.26,25.26,0,0,0-7.9,1.47c0,.4,0,.66,0,.72a1.53,1.53,0,0,1-.13.51A11.42,11.42,0,0,1,54.77,53,6.92,6.92,0,0,1,55,54.25a7.48,7.48,0,0,1,5.68,5c1.07,2.9.53,7.35-.8,11.45,3.72,4.34,7.08.36,15,4.6,8.67,4.65,5.29,10.07,5.29,10.07h0c.19,0,1.93-.29,2.55-11,.65-11.29-4.58-9.92-8.76-20.45C72.06,49.28,68.12,48,64.3,48Z" style="fill: inherit;"></path><path xmlns="http://www.w3.org/2000/svg" d="M42.17,46.3c4.3,0,7.79,1,10,2.81a31.12,31.12,0,0,0-8.33-17.2,4.15,4.15,0,0,1-.78.09c-2.84,0-6-3.12-7.74-7.78a17.55,17.55,0,0,1-1-4.2c-5.85.47-15,.72-16.76,7.47-2,7.36-2.43,8.46-2.43,8.46s3.57-5.44,8.24-5.44a7.41,7.41,0,0,1,5.35,2.62c3.94,4.08,5.15,9.55,6.51,13.93A33.33,33.33,0,0,1,42.17,46.3Z" style="fill: inherit;"></path><path xmlns="http://www.w3.org/2000/svg" d="M53.76,49.16c.33-.95.73-2,1.21-3.08-.06-3.64-.55-8.95-2.73-12.15a80.7,80.7,0,0,0-5-6.56,5.83,5.83,0,0,1-1.95,3.86A32.26,32.26,0,0,1,53.76,49.16Z" style="fill: inherit;"></path><path xmlns="http://www.w3.org/2000/svg" d="M19,80.77s2.33-7.22,10.3-13.9c3.2-2.68,7.14-3,10.94-3.19a47.69,47.69,0,0,1,7.83-8,8.32,8.32,0,0,1,5-1.61.73.73,0,0,1-.59-.71c0-.63-.06-1.23-.1-1.83-1.68-2.34-5.39-3.72-10.3-3.72-6.35,0-14.68,2.3-23.13,7.76C8.06,62.65,16.91,80.77,19,80.77Z" style="fill: inherit;"></path><path xmlns="http://www.w3.org/2000/svg" d="M53.41,54.07h0Z" style="fill: inherit;"></path><path xmlns="http://www.w3.org/2000/svg" d="M53.21,55.56a6.9,6.9,0,0,0-4.16,1.27S35.93,67,35.93,78.4,42.49,95,42.49,95s1.41-12.79,7.67-14,11.11-15.7,9.07-21.22A6.08,6.08,0,0,0,53.21,55.56Z" style="fill: inherit;"></path><path xmlns="http://www.w3.org/2000/svg" d="M43.85,30.37c2.22-.81,2.74-5.23,1.13-9.65a13.64,13.64,0,0,0-3.48-5.45,4.54,4.54,0,0,0-2.84-1.34,2.11,2.11,0,0,0-.75.13c-2.22.81-2.73,5.22-1.13,9.65S41.63,31.18,43.85,30.37Z" style="fill: inherit;"></path><path xmlns="http://www.w3.org/2000/svg" d="M70.22,33.54A10.26,10.26,0,0,0,72,28.94a2.78,2.78,0,0,0-.81-2.65,1.73,1.73,0,0,0-1-.26,4,4,0,0,0-1.81.53A10.25,10.25,0,0,0,64.87,30a10.24,10.24,0,0,0-1.78,4.6,2.78,2.78,0,0,0,.81,2.65C65.17,38.06,68.07,36.76,70.22,33.54Z" style="fill: inherit;"></path></symbol></svg>