<svg xmlns="http://www.w3.org/2000/svg"><symbol id="icon" viewBox="0 0 100 100"><title xmlns="http://www.w3.org/2000/svg" style="fill: inherit;">FPR302_Noun_Gardening</title><path xmlns="http://www.w3.org/2000/svg" d="M16.63,41.22c.26-.52-.87-.53-1,.11S16.41,41.54,16.63,41.22Z" style="fill: inherit;"></path><path xmlns="http://www.w3.org/2000/svg" d="M10.73,44.23c-.32-.13-.52,0-.6.34-.16.65.58,1.31.89.49C11.14,44.67,11.15,44.4,10.73,44.23Z" style="fill: inherit;"></path><path xmlns="http://www.w3.org/2000/svg" d="M18.2,35.9a.44.44,0,0,0-.05-.86C17.43,34.84,17.65,36,18.2,35.9Z" style="fill: inherit;"></path><path xmlns="http://www.w3.org/2000/svg" d="M93.11,41.26c0-.54-.13-1-.19-1.48a11,11,0,0,0-2.45-5.38,8.73,8.73,0,0,0-5.12-2.82,11.8,11.8,0,0,0-2.84-.18,10.61,10.61,0,0,0-2.8.43,9,9,0,0,0-4.49,3c-.47-.11-.94-.2-1.41-.29,0-1.09,0-2.18,0-3.28a40.63,40.63,0,0,0-1-7.88,18.66,18.66,0,0,0-3.36-7.46A9.61,9.61,0,0,0,66,13.16a10,10,0,0,0-4.3-.92,15.61,15.61,0,0,0-8.26,2A13.43,13.43,0,0,0,48,20.89,22.61,22.61,0,0,0,46.5,29a29.44,29.44,0,0,0,.43,5.48c-.19,0-.38.08-.58.14a15.35,15.35,0,0,0-2.66.93,6.81,6.81,0,0,0-1.35.85,2.72,2.72,0,0,0-1.05,2,2.78,2.78,0,0,0,1,2l.09.08c-.34,4.61-.47,9.21-.5,13.8,0,1.8,0,3.59,0,5.39-1.41-1.7-2.89-3.3-4.43-4.86-2.07-2.12-4.25-4.12-6.47-6.06s-4.52-3.8-6.88-5.54l-.89-.66-.44-.32-.09-.07a3.08,3.08,0,0,1,0-.43c0-.34.06-.69.1-1,.15-1.44.41-2.9.58-4.39l0,0c1.36-2.75,2-5.42.11-6.29-3.6-1.66-10.08,3.74-13,7.77C7.65,41.59,3.12,48.16,6.08,50c1.6,1,3.6.46,5.59-.69l-.06,0c1.76-.43,3.48-1,5.16-1.38a9,9,0,0,1,1-.18l.34.39,1.76,2c2.35,2.67,4.8,5.26,7.29,7.8s5.06,5,7.72,7.38c2.35,2.11,4.75,4.17,7.3,6.09l.08,1.73.09,1.89,0,1v.89a12.59,12.59,0,0,0,.5,4.2,7.56,7.56,0,0,0,2.59,3.6,15.29,15.29,0,0,0,7.61,2.55,33.06,33.06,0,0,0,5.8,0l.24,0h.33A14.29,14.29,0,0,0,61,87.12l.31,0h.22a2.84,2.84,0,0,1-2.23-1.71,8,8,0,0,1-.64-2.82,44.42,44.42,0,0,1,.13-6.08c.1-2,.16-4,.2-6q.07,2.41.21,4.83c.11,2,.24,4,.48,6.07a28.85,28.85,0,0,0,.53,3,11.7,11.7,0,0,0,.45,1.5,3.91,3.91,0,0,0,.37.7.75.75,0,0,0,.64.42.68.68,0,0,1-.43-.52,3.4,3.4,0,0,1-.14-.72A12,12,0,0,1,61,84.37c0-1,0-2,.12-3,.1-2,.3-4,.39-6,.09-1.78.15-3.56.2-5.33.06,1.77.12,3.55.21,5.33.09,2,.29,4,.39,6,.07,1,.11,2,.12,3a12,12,0,0,1-.07,1.48,3.4,3.4,0,0,1-.14.72.68.68,0,0,1-.43.52.75.75,0,0,0,.64-.42,3.91,3.91,0,0,0,.37-.7,11.7,11.7,0,0,0,.45-1.5,28.85,28.85,0,0,0,.53-3c.24-2,.37-4.07.48-6.07.09-1.61.15-3.22.21-4.83q.06,3,.19,6a42.91,42.91,0,0,1,.14,6.08,8,8,0,0,1-.64,2.82,2.86,2.86,0,0,1-2.23,1.71h.22l.31,0a14.29,14.29,0,0,0,1.48.12h.32l.25,0a33.06,33.06,0,0,0,5.8,0,15.29,15.29,0,0,0,7.61-2.55,7.56,7.56,0,0,0,2.59-3.6A12.31,12.31,0,0,0,81,76.9V76l0-1,.09-1.89.17-3.78.2-7.56,0-3.46a28.11,28.11,0,0,0,8.17-7.46,20.4,20.4,0,0,0,2.64-5.13,13.44,13.44,0,0,0,.71-2.94A7.53,7.53,0,0,0,93.11,41.26ZM22.74,42.35c0,.13,0,0,0-.09A.36.36,0,0,1,22.74,42.35ZM17.94,34a1.55,1.55,0,0,1,1.59,1.28,1.46,1.46,0,0,1-.83,1.46.5.5,0,0,1-.23.12.66.66,0,0,1-.24,0,1.51,1.51,0,0,1-1.53-1.33A1.33,1.33,0,0,1,17.94,34Zm-3.19,6.84a1.64,1.64,0,0,1,1.93-1,1.24,1.24,0,0,1,.89,1.67.46.46,0,0,1-.08.21,1.88,1.88,0,0,1-2.16.9A1.34,1.34,0,0,1,14.75,40.85ZM12,45.33c-.33.85-1.06,1.42-2,1a1.69,1.69,0,0,1-.83-2,1.37,1.37,0,0,1,1.82-1A1.53,1.53,0,0,1,12,45.33Zm1-5a1.2,1.2,0,0,1-1.63-1.21,1.63,1.63,0,0,1,1.27-1.51,1.5,1.5,0,0,1,1.64.58.22.22,0,0,1,.05.08l0,0s0,0,0,0a1,1,0,0,1,0,.1A1.74,1.74,0,0,1,13,40.37Zm5.19,5.47a2.39,2.39,0,0,0-.55.07,7.89,7.89,0,0,0-1.39.55,26.54,26.54,0,0,0-2.34,1.31,43.75,43.75,0,0,0,5.14-5,32,32,0,0,0,3.26-4.53c-.33.67-.63,1.35-.91,2.05-.14.36-.26.72-.37,1.11,0,.06,0,.13-.05.19h0a7.6,7.6,0,0,1-1.07,2.89,3.88,3.88,0,0,1-1.67,1.35Zm1.45.83c-.13-.11-.31-.27-.51-.42a5,5,0,0,0,1.75-.62,6.87,6.87,0,0,0,1.37-1.08l.52.53.05.05a6,6,0,0,1-.58,1.52A4.28,4.28,0,0,1,21.08,48Zm2.06,1.82a5.29,5.29,0,0,0,1.63-.81,6.82,6.82,0,0,0,1.08-1c.21.2.41.41.62.6a6.85,6.85,0,0,1-.47,1.52,5.09,5.09,0,0,1-1,1.45C22.94,49.66,22.32,49.06,21.68,48.49Zm2.44,2.27a6.07,6.07,0,0,0,1.6-1,8,8,0,0,0,.89-.94l.62.57a6.53,6.53,0,0,1-.38,1.6A6.26,6.26,0,0,1,26,52.54Zm2.38,2.29a7.44,7.44,0,0,0,1.61-1.27,7.87,7.87,0,0,0,.77-.94l.28.26.3.25a6.93,6.93,0,0,1-.31,1.77,7.43,7.43,0,0,1-.8,1.78C27.74,54.28,27.12,53.66,26.5,53.05Zm2.83,2.82-.49-.49a9,9,0,0,0,1.62-1.53,8.83,8.83,0,0,0,.74-1l.47.4a7.45,7.45,0,0,1-.22,2.08,10.51,10.51,0,0,1-.75,2C30.24,56.83,29.79,56.34,29.33,55.87Zm1.81,1.91a12.21,12.21,0,0,0,1.66-1.84,8.91,8.91,0,0,0,.74-1.23l.33.25a8.32,8.32,0,0,1-.13,2.52,14.73,14.73,0,0,1-.7,2.3C32.41,59.1,31.77,58.44,31.14,57.78Zm2.3,2.45a16.19,16.19,0,0,0,1.69-2.18,11.88,11.88,0,0,0,.77-1.51l.08.06h0a8.71,8.71,0,0,1,0,3.06,22.94,22.94,0,0,1-.67,2.72C34.72,61.67,34.09,60.94,33.44,60.23Zm3.12,3.51-.85-1a25.66,25.66,0,0,0,1.73-2.61,9.83,9.83,0,0,0,.73-1.65,9.1,9.1,0,0,1,.14,3.35c-.13,1-.39,2.12-.6,3.21ZM38,65.44c.57-1,1.21-2,1.75-3.12a12.58,12.58,0,0,0,.65-1.65,9.91,9.91,0,0,1,.2,3.42c-.12,1.26-.39,2.58-.51,3.91C39.4,67.13,38.7,66.28,38,65.44Zm2.29,2.82c.5-1.23,1.15-2.39,1.7-3.66l.13,4.79.06,1.37C41.56,69.92,40.93,69.08,40.29,68.26Zm27.6-51a16.91,16.91,0,0,1,3.4,6.53,47.39,47.39,0,0,1,1.8,10.6l-.39-.08-.2,0c0-1.24-.1-2.48-.23-3.73a34.12,34.12,0,0,0-1.33-6.79,17.5,17.5,0,0,0-3.36-6.28,10.38,10.38,0,0,0-2.86-2.3A7.31,7.31,0,0,1,67.89,17.22ZM48.17,31.54c0,.87,0,1.74.08,2.61l-.34.06C48,33.32,48.06,32.42,48.17,31.54ZM44.72,61v.48c-.16-2.41-.29-4.82-.51-7.23-.36-4.51-.82-9-1.49-13.49a8.44,8.44,0,0,0,.91.57,14.28,14.28,0,0,0,1.57.7c-.28,3.9-.41,7.8-.47,11.69C44.68,56.11,44.72,58.53,44.72,61Zm.71,19.36a8.31,8.31,0,0,1-.21-2.59c0,.5,0,1,.08,1.52a9.53,9.53,0,0,0,.26,1.46C45.52,80.58,45.46,80.45,45.43,80.32Zm2.11-19.63c-.15-2.35-.26-4.71-.47-7.06-.29-3.81-.65-7.61-1.16-11.4l.38.13c.59.18,1.18.34,1.78.49-.26,3.43-.4,6.84-.47,10.26-.08,2.33-.05,4.66-.07,7ZM48.67,82A6.49,6.49,0,0,1,47.92,79a15.93,15.93,0,0,1,0-1.68c0-.29,0-.61,0-.94,0,.08,0,.17,0,.26v.88a13.22,13.22,0,0,0,.5,3.79,8.82,8.82,0,0,0,.31.86A1.94,1.94,0,0,1,48.67,82Zm1.69-22c-.14-2.3-.23-4.6-.43-6.89-.24-3.34-.54-6.67-1-10,.66.15,1.31.27,2,.39-.24,3-.38,6.06-.47,9.08-.1,2.25-.08,4.49-.12,6.73ZM52,83.43a5.87,5.87,0,0,1-1.23-2.66,13.62,13.62,0,0,1-.14-3.16l0-.86c0-.31,0-.63,0-.91v-1l.07,1.28A32,32,0,0,0,51,79.52a11.1,11.1,0,0,0,1,3.58,4.76,4.76,0,0,0,.4.69A2.67,2.67,0,0,1,52,83.43Zm.79-30.91c-.21-3-.47-5.92-.82-8.87l1.84.25c-.23,2.71-.38,5.42-.48,8.13-.11,2.16-.11,4.31-.16,6.47v.74C53.06,57,53,54.76,52.8,52.52Zm2.49,32.25a7,7,0,0,1-2-5.41c0-1,.09-2.09.13-3.28l0-2.8.21,4.6a13.46,13.46,0,0,0,1.66,6.66,8.59,8.59,0,0,0,.59.76A4.45,4.45,0,0,1,55.29,84.77ZM55,44l1.74.15c-.23,2.46-.38,4.93-.49,7.39-.12,2.07-.13,4.15-.2,6.23v.69c-.11-2.16-.17-4.32-.34-6.47Q55.42,48,55,44Zm3.6,41.82a3.76,3.76,0,0,0,.71.67,4.78,4.78,0,0,1-2.66-2.68A13.74,13.74,0,0,1,56,77.89c.12-2,.17-4.08.2-6.12.07,1.57.13,3.13.22,4.7a31.06,31.06,0,0,0,.75,6.35A8.84,8.84,0,0,0,58.57,85.84Zm.53-34.66c-.13,2-.15,4-.23,6v.54c-.1-2.07-.15-4.15-.31-6.23-.15-2.44-.34-4.87-.6-7.31.55,0,1.1.06,1.66.07C59.38,46.6,59.22,48.89,59.1,51.18Zm2.89,0c-.14,2-.18,4-.26,6l0,.64v-.64c-.08-2-.12-4-.26-6-.14-2.3-.31-4.59-.54-6.88.44,0,.88,0,1.32,0h.32C62.3,46.58,62.13,48.88,62,51.18Zm.23-18a78.1,78.1,0,0,0-10.58.45c-.79.1-1.58.21-2.37.35a54.62,54.62,0,0,1,3.07-10.48,15.94,15.94,0,0,1,3.29-5.05,6.76,6.76,0,0,1,5.16-2,7.8,7.8,0,0,1,5.32,2.35,15.82,15.82,0,0,1,3.37,5.42,38.74,38.74,0,0,1,2.38,9.89A69.2,69.2,0,0,0,62.22,33.16Zm6.27,10.56c-.32,2.76-.55,5.52-.73,8.29-.17,2.15-.23,4.31-.35,6.47v-.69c-.07-2.08-.08-4.16-.2-6.23-.11-2.53-.27-5.07-.51-7.6C67.3,43.89,67.89,43.81,68.49,43.72ZM64.57,57.77v-.54c-.08-2-.1-4-.24-6-.12-2.32-.28-4.65-.51-7,.57,0,1.13-.07,1.69-.12-.27,2.48-.47,5-.62,7.45C64.72,53.62,64.67,55.7,64.57,57.77Zm2.24,26.06a4.78,4.78,0,0,1-2.66,2.68,3.76,3.76,0,0,0,.71-.67,8.84,8.84,0,0,0,1.4-3A31.06,31.06,0,0,0,67,76.47c.09-1.57.15-3.13.22-4.7,0,2,.08,4.08.2,6.12A13.74,13.74,0,0,1,66.81,83.83Zm1.33.94a4.45,4.45,0,0,1-.62.53,8.59,8.59,0,0,0,.59-.76,13.46,13.46,0,0,0,1.66-6.66l.21-4.6,0,2.8c0,1.19.14,2.23.13,3.28A7,7,0,0,1,68.14,84.77Zm2.11-25.53V58.5c0-2.16,0-4.31-.16-6.47-.1-2.83-.26-5.65-.51-8.48.64-.11,1.28-.24,1.92-.37-.38,3.11-.65,6.22-.87,9.34C70.45,54.76,70.37,57,70.25,59.24Zm2.4,21.53a5.87,5.87,0,0,1-1.23,2.66,2.67,2.67,0,0,1-.31.36,4.76,4.76,0,0,0,.4-.69,10.84,10.84,0,0,0,1-3.58,29.74,29.74,0,0,0,.17-3.44l.07-1.28v1c0,.28,0,.6,0,.91l.05.86A13.62,13.62,0,0,1,72.65,80.77Zm.85-27.7c-.2,2.29-.29,4.59-.43,6.89v-.68c0-2.24,0-4.48-.12-6.73-.09-3.18-.24-6.38-.51-9.57l.31-.07c.6-.14,1.19-.3,1.78-.45C74.08,46,73.76,49.53,73.5,53.07Zm2,26A6.49,6.49,0,0,1,74.76,82a1.94,1.94,0,0,1-.15.24,8.82,8.82,0,0,0,.31-.86,13.22,13.22,0,0,0,.5-3.79v-.88c0-.09,0-.18,0-.26,0,.33,0,.65,0,.94A15.93,15.93,0,0,1,75.51,79Zm.85-25.41c-.21,2.35-.32,4.71-.47,7.06V60.1c0-2.33,0-4.66-.07-7-.08-3.62-.22-7.23-.52-10.86.78-.22,1.55-.47,2.32-.73C77.06,45.55,76.67,49.59,76.36,53.63ZM78,80.32c0,.13-.09.26-.14.38a8.21,8.21,0,0,0,.27-1.45c.05-.52.07-1,.08-1.52A8.31,8.31,0,0,1,78,80.32Zm1.21-26.11c-.22,2.41-.35,4.82-.51,7.23V61c0-2.43,0-4.85,0-7.28-.06-4.11-.2-8.23-.53-12.35a16.09,16.09,0,0,0,2.17-1l.46-.28C80.07,44.78,79.59,49.49,79.21,54.21Zm2.32-.5c0-4.58-.17-9.16-.53-13.76a4.94,4.94,0,0,0,.45-.35,1.78,1.78,0,0,0,.64-1.25,1.73,1.73,0,0,0-.68-1.21,5.16,5.16,0,0,0-1.13-.72c-.4-.2-.81-.37-1.23-.53.1-.49.54-1.36,2.3-2,2.58-.92,6.56-1.49,7,5.18C88.72,44.16,83.88,50.81,81.53,53.71Z" style="fill: inherit;"></path><path xmlns="http://www.w3.org/2000/svg" d="M12.47,38.85c-.21.3-.2.64.25.55.24,0,.69-.35.69-.63A.64.64,0,0,0,12.47,38.85Z" style="fill: inherit;"></path></symbol></svg>