<svg xmlns="http://www.w3.org/2000/svg" xmlns:xlink="http://www.w3.org/1999/xlink"><symbol id="icon" viewBox="-17.5 -17.5 100 100"><path xmlns="http://www.w3.org/2000/svg" d="M65.401,58.103c-4.429,0-8.032,3.603-8.032,8.03c0,4.429,3.604,8.031,8.032,8.031c4.428,0,8.029-3.603,8.029-8.031  C73.431,61.705,69.829,58.103,65.401,58.103z" style="fill: inherit;"></path><path xmlns="http://www.w3.org/2000/svg" d="M72.573,52.961v-26.51c0-3.955-3.218-7.172-7.172-7.172c-3.955,0-7.173,3.217-7.173,7.172v26.511  c-4.862,2.642-7.863,7.658-7.863,13.201c0,8.291,6.745,15.036,15.036,15.036c8.29,0,15.035-6.745,15.035-15.036  C80.437,60.619,77.436,55.604,72.573,52.961z M65.401,75.664c-5.256,0-9.532-4.275-9.532-9.531c0-5.002,3.877-9.107,8.782-9.492  V24.587c0-0.414,0.336-0.75,0.75-0.75s0.75,0.336,0.75,0.75v32.054c4.904,0.385,8.779,4.49,8.779,9.492  C74.931,71.389,70.656,75.664,65.401,75.664z" style="fill: inherit;"></path><path xmlns="http://www.w3.org/2000/svg" d="M51.835,29.11h4.064c0.414,0,0.75-0.336,0.75-0.75s-0.336-0.75-0.75-0.75h-4.064c-0.414,0-0.75,0.336-0.75,0.75  S51.421,29.11,51.835,29.11z" style="fill: inherit;"></path><path xmlns="http://www.w3.org/2000/svg" d="M74.901,29.11h4.065c0.414,0,0.75-0.336,0.75-0.75s-0.336-0.75-0.75-0.75h-4.065c-0.414,0-0.75,0.336-0.75,0.75  S74.487,29.11,74.901,29.11z" style="fill: inherit;"></path><path xmlns="http://www.w3.org/2000/svg" d="M51.835,33.582h4.064c0.414,0,0.75-0.336,0.75-0.75s-0.336-0.75-0.75-0.75h-4.064c-0.414,0-0.75,0.336-0.75,0.75  S51.421,33.582,51.835,33.582z" style="fill: inherit;"></path><path xmlns="http://www.w3.org/2000/svg" d="M74.901,33.582h4.065c0.414,0,0.75-0.336,0.75-0.75s-0.336-0.75-0.75-0.75h-4.065c-0.414,0-0.75,0.336-0.75,0.75  S74.487,33.582,74.901,33.582z" style="fill: inherit;"></path><path xmlns="http://www.w3.org/2000/svg" d="M51.835,38.054h4.064c0.414,0,0.75-0.336,0.75-0.75s-0.336-0.75-0.75-0.75h-4.064c-0.414,0-0.75,0.336-0.75,0.75  S51.421,38.054,51.835,38.054z" style="fill: inherit;"></path><path xmlns="http://www.w3.org/2000/svg" d="M74.901,38.054h4.065c0.414,0,0.75-0.336,0.75-0.75s-0.336-0.75-0.75-0.75h-4.065c-0.414,0-0.75,0.336-0.75,0.75  S74.487,38.054,74.901,38.054z" style="fill: inherit;"></path><path xmlns="http://www.w3.org/2000/svg" d="M51.835,42.525h4.064c0.414,0,0.75-0.336,0.75-0.75s-0.336-0.75-0.75-0.75h-4.064c-0.414,0-0.75,0.336-0.75,0.75  S51.421,42.525,51.835,42.525z" style="fill: inherit;"></path><path xmlns="http://www.w3.org/2000/svg" d="M74.901,42.525h4.065c0.414,0,0.75-0.336,0.75-0.75s-0.336-0.75-0.75-0.75h-4.065c-0.414,0-0.75,0.336-0.75,0.75  S74.487,42.525,74.901,42.525z" style="fill: inherit;"></path><path xmlns="http://www.w3.org/2000/svg" d="M51.835,46.997h4.064c0.414,0,0.75-0.336,0.75-0.75s-0.336-0.75-0.75-0.75h-4.064c-0.414,0-0.75,0.336-0.75,0.75  S51.421,46.997,51.835,46.997z" style="fill: inherit;"></path><path xmlns="http://www.w3.org/2000/svg" d="M74.901,46.997h4.065c0.414,0,0.75-0.336,0.75-0.75s-0.336-0.75-0.75-0.75h-4.065c-0.414,0-0.75,0.336-0.75,0.75  S74.487,46.997,74.901,46.997z" style="fill: inherit;"></path><path xmlns="http://www.w3.org/2000/svg" d="M51.835,51.469h4.064c0.414,0,0.75-0.336,0.75-0.75s-0.336-0.75-0.75-0.75h-4.064c-0.414,0-0.75,0.336-0.75,0.75  S51.421,51.469,51.835,51.469z" style="fill: inherit;"></path><path xmlns="http://www.w3.org/2000/svg" d="M74.901,51.469h4.065c0.414,0,0.75-0.336,0.75-0.75s-0.336-0.75-0.75-0.75h-4.065c-0.414,0-0.75,0.336-0.75,0.75  S74.487,51.469,74.901,51.469z" style="fill: inherit;"></path><path xmlns="http://www.w3.org/2000/svg" d="M15.14-8.088C2.752-8.088-7.325,1.99-7.325,14.377S2.752,36.842,15.14,36.842s22.465-10.078,22.465-22.465  S27.527-8.088,15.14-8.088z" style="fill: inherit;"></path><path xmlns="http://www.w3.org/2000/svg" d="M15.14-9.46c0.414,0,0.75-0.336,0.75-0.75v-5.239c0-0.414-0.336-0.75-0.75-0.75s-0.75,0.336-0.75,0.75v5.239  C14.39-9.796,14.726-9.46,15.14-9.46z" style="fill: inherit;"></path><path xmlns="http://www.w3.org/2000/svg" d="M15.14,38.214c-0.414,0-0.75,0.336-0.75,0.75v5.24c0,0.414,0.336,0.75,0.75,0.75s0.75-0.336,0.75-0.75v-5.24  C15.89,38.55,15.554,38.214,15.14,38.214z" style="fill: inherit;"></path><path xmlns="http://www.w3.org/2000/svg" d="M44.967,13.627h-5.239c-0.414,0-0.75,0.336-0.75,0.75s0.336,0.75,0.75,0.75h5.239c0.414,0,0.75-0.336,0.75-0.75  S45.381,13.627,44.967,13.627z" style="fill: inherit;"></path><path xmlns="http://www.w3.org/2000/svg" d="M-9.447,13.627h-5.239c-0.414,0-0.75,0.336-0.75,0.75s0.336,0.75,0.75,0.75h5.239c0.414,0,0.75-0.336,0.75-0.75  S-9.033,13.627-9.447,13.627z" style="fill: inherit;"></path><path xmlns="http://www.w3.org/2000/svg" d="M-2.776-2.479c0.146,0.146,0.338,0.22,0.53,0.22s0.384-0.073,0.53-0.22c0.293-0.293,0.293-0.768,0-1.061L-5.42-7.243  c-0.293-0.293-0.768-0.293-1.061,0s-0.293,0.768,0,1.061L-2.776-2.479z" style="fill: inherit;"></path><path xmlns="http://www.w3.org/2000/svg" d="M33.056,31.232c-0.293-0.293-0.768-0.293-1.061,0s-0.293,0.768,0,1.061l3.705,3.705c0.146,0.146,0.338,0.22,0.53,0.22  s0.384-0.073,0.53-0.22c0.293-0.293,0.293-0.768,0-1.061L33.056,31.232z" style="fill: inherit;"></path><path xmlns="http://www.w3.org/2000/svg" d="M32.525-2.259c0.192,0,0.384-0.073,0.53-0.22l3.705-3.704c0.293-0.293,0.293-0.768,0-1.061s-0.768-0.293-1.061,0  l-3.705,3.704c-0.293,0.293-0.293,0.768,0,1.061C32.142-2.332,32.333-2.259,32.525-2.259z" style="fill: inherit;"></path><path xmlns="http://www.w3.org/2000/svg" d="M-2.776,31.232l-3.704,3.705c-0.293,0.293-0.293,0.768,0,1.061c0.146,0.146,0.338,0.22,0.53,0.22s0.384-0.073,0.53-0.22  l3.704-3.705c0.293-0.293,0.293-0.768,0-1.061S-2.483,30.939-2.776,31.232z" style="fill: inherit;"></path></symbol></svg>