<svg xmlns="http://www.w3.org/2000/svg" xmlns:xlink="http://www.w3.org/1999/xlink"><symbol id="icon" viewBox="0 0 100 100"><g xmlns="http://www.w3.org/2000/svg"><path d="M25.4,50.6h49.2c1.4,0,2.5-1.1,2.5-2.4v-4.6c0-1.3-1.1-2.4-2.5-2.4H25.4c-1.4,0-2.5,1.1-2.5,2.4v4.6   C22.9,49.6,24,50.6,25.4,50.6z" style="fill: inherit;"></path><path d="M82.8,45.9c-0.7-0.9-1.8-1.5-3.1-1.5h-1.1v2.9h1.1c0.4,0,0.6,0.2,0.7,0.3c0.1,0.1,0.2,0.4,0.2,0.7l-1.8,6.5   c-0.8,2.9-3.5,5-6.6,5H27.9c-3.1,0-5.8-2-6.6-5l-1.8-6.5c-0.1-0.4,0.1-0.6,0.2-0.7c0.1-0.1,0.3-0.3,0.7-0.3h1.1v-2.9h-1.1   c-1.2,0-2.3,0.5-3.1,1.5c-0.7,0.9-1,2.1-0.7,3.3l1.8,6.5c1.2,4.2,5.1,7.1,9.5,7.1h44.3c4.5,0,8.4-2.9,9.5-7.1l1.8-6.5   C83.7,48,83.5,46.8,82.8,45.9z" style="fill: inherit;"></path><path d="M64.4,33.3l-3,6.3h9l1.4-2.9c2.9-0.2,5.5-2,6.8-4.6l1.9-4.1c0.2-0.3,0.2-0.7,0-1.1c-0.1-0.4-0.4-0.7-0.8-0.8l-12.2-5.5   c-0.4-0.2-0.8-0.2-1.1,0c-0.4,0.1-0.7,0.4-0.8,0.8l-1.9,4.1c-0.9,1.9-1,4.1-0.3,6.1C63.6,32.1,64,32.8,64.4,33.3z M66.3,26.5   l1.3-2.8l9.5,4.3l-1.3,2.8c-0.9,1.8-2.7,3-4.8,3c-0.8,0-1.5-0.2-2.2-0.5c-1.3-0.6-2.2-1.6-2.7-2.9C65.7,29.2,65.7,27.8,66.3,26.5z" style="fill: inherit;"></path><path d="M31.4,78.4c0.1,0.7,0.7,1.2,1.5,1.2h34.4c0.7,0,1.3-0.5,1.5-1.2l2.4-14.1H28.9L31.4,78.4z" style="fill: inherit;"></path><polygon points="72.1,58.3 73.1,52.2 26.9,52.2 27.9,58.3  " style="fill: inherit;"></polygon><path d="M25.4,39.6h34.3l2.9-6.1c-0.3-0.5-0.5-1-0.7-1.5c-0.8-2.1-0.8-4.4,0-6.5c-1-0.4-2.2-0.6-3.3-0.6c-1.7,0-3.4,0.5-4.8,1.3   c-1.7-2.1-4.3-3.4-7.2-3.4c-3.4,0-6.5,1.8-8,4.7c-0.8-0.3-1.7-0.4-2.6-0.4c-3.6,0-6.6,2.4-7.5,5.7c-2.9,1-4.9,3.6-4.9,6.6   c0,0.2,0,0.4,0,0.6C24.2,39.7,24.8,39.6,25.4,39.6z" style="fill: inherit;"></path><path d="M72.1,39.6h2.4c0.8,0,1.6,0.2,2.2,0.6c0-0.2,0-0.5,0-0.7c0-1-0.2-1.9-0.5-2.7c-1.1,0.7-2.2,1.1-3.5,1.3L72.1,39.6z" style="fill: inherit;"></path></g></symbol></svg>