<svg xmlns="http://www.w3.org/2000/svg" xmlns:xlink="http://www.w3.org/1999/xlink"><symbol id="icon" viewBox="0 0 100 100"><g xmlns="http://www.w3.org/2000/svg"><path d="M67.403,63.183v-46.75c0-3.3-2.7-6-6-6c-3.301,0-6,2.699-6,6v46.749c-5.298,2.314-9.001,7.601-9.001,13.751   c0,8.284,6.716,15,15,15s15-6.716,15-15C76.402,70.782,72.7,65.497,67.403,63.183z M61.402,83.433c-3.58,0-6.5-2.92-6.5-6.5   c0-2.895,1.909-5.354,4.531-6.192c-0.016-0.101-0.031-0.202-0.031-0.308v-18c0-1.104,0.896-2,2-2s2,0.896,2,2v18   c0,0.105-0.016,0.207-0.031,0.308c2.622,0.838,4.531,3.298,4.531,6.192C67.902,80.513,64.982,83.433,61.402,83.433z" style="fill: inherit;"></path><path d="M49.214,58.035V41.527c0-0.165-0.025-0.324-0.063-0.478l0.078-14.086c0-0.099-0.015-0.195-0.029-0.291   c0.004-0.049,0.015-0.096,0.015-0.145V10.067c0-1.104-0.896-2-2-2s-2,0.896-2,2v5l-3.436-3.436c-0.781-0.781-2.047-0.781-2.828,0   s-0.781,2.047,0,2.828l6.264,6.264v4.465c-1.825,0.412-3.439,1.375-4.667,2.703l-3.918-2.262l-2.274-8.488   c-0.286-1.066-1.376-1.704-2.449-1.414c-1.067,0.285-1.7,1.382-1.414,2.449l1.239,4.625l-4.287-2.476   c-0.956-0.554-2.18-0.224-2.732,0.732c-0.552,0.956-0.225,2.18,0.732,2.732l4.33,2.501l-4.693,1.257   c-1.067,0.285-1.7,1.382-1.414,2.449c0.239,0.894,1.047,1.483,1.931,1.483c0.171,0,0.345-0.022,0.519-0.069l8.557-2.292   l3.861,2.229c-0.267,0.854-0.41,1.762-0.41,2.702c0,0.939,0.146,1.847,0.413,2.701l-3.907,2.256l-8.488-2.274   c-1.07-0.289-2.163,0.348-2.449,1.414c-0.286,1.067,0.347,2.164,1.414,2.449l4.625,1.239l-4.287,2.475   c-0.957,0.553-1.284,1.775-0.732,2.732c0.371,0.642,1.043,1,1.734,1c0.339,0,0.683-0.086,0.998-0.268l4.331-2.5l-1.258,4.692   c-0.286,1.067,0.347,2.163,1.414,2.449c0.174,0.047,0.348,0.069,0.519,0.069c0.883,0,1.691-0.59,1.931-1.483l2.292-8.556   l3.881-2.24c1.229,1.327,2.841,2.294,4.661,2.707v4.515L39,53.643c-0.781,0.781-0.781,2.047,0,2.828   c0.391,0.391,0.902,0.586,1.414,0.586s1.023-0.195,1.414-0.586l3.386-3.386v4.95c0,1.104,0.896,2,2,2S49.214,59.14,49.214,58.035z" style="fill: inherit;"></path></g></symbol></svg>