<svg xmlns="http://www.w3.org/2000/svg"><symbol id="icon" viewBox="0 0 64 64"><g xmlns="http://www.w3.org/2000/svg"><path d="M26.68,29.629l-1.512.435.757,1.379A3,3,0,0,0,29.7,32.772l1-.411-.411-.994A2.993,2.993,0,0,0,26.68,29.629Z" style="fill: inherit;"></path><path d="M32,29.4l.72-.9a3.977,3.977,0,0,0,0-5L32,22.6l-.72.9a3.977,3.977,0,0,0,0,5Z" style="fill: inherit;"></path><path d="M39.662,43.411A11.038,11.038,0,0,0,32.791,41h-.82a10.923,10.923,0,0,0-7.389,2.851c.069.044.139.086.209.128.322.2.651.375.984.543.2.1.4.2.607.292.128.057.258.106.387.158L28.4,44a6.984,6.984,0,0,1,7.2,0l1.633.98.027-.01c.15-.061.3-.128.447-.194.246-.111.489-.227.728-.352.119-.062.239-.122.356-.187.368-.2.727-.423,1.073-.659l-.2-.162Z" style="fill: inherit;"></path><path d="M29.428,45.71l-.057.034.016,0c.393.077.788.131,1.183.173l.159.017c.277.025.559.034.841.042s.573.009.86,0,.558-.017.833-.042c.075-.007.149-.017.224-.025.347-.038.694-.087,1.039-.152l.1-.018-.051-.031A4.985,4.985,0,0,0,29.428,45.71Z" style="fill: inherit;"></path><path d="M38.076,31.443l.756-1.379-1.512-.435a3,3,0,0,0-3.6,1.737l-.411.995,1,.412A3,3,0,0,0,38.076,31.443Z" style="fill: inherit;"></path><path d="M52,21.83V4H12V22a1,1,0,0,1-.052.316l-1.884,5.653,1.865,4.66A1,1,0,0,1,12,33V60H52V33.2l-2.018-4.814a1.007,1.007,0,0,1-.022-.717ZM38,6h4V8H38ZM30,6h4V8H30ZM22,6h4V8H22ZM14,6h4V8H14Zm4,52H14V56h4Zm8,0H22V56h4Zm8,0H30V56h4Zm8,0H38V56h4Zm.154-13.645c-.007.006-.009.015-.016.021-.382.313-.78.6-1.187.879-.036.024-.073.044-.109.068-.363.241-.734.468-1.114.678-.164.09-.334.169-.5.254-.258.131-.516.261-.781.378-.216.095-.435.18-.655.266s-.46.175-.693.254-.476.153-.718.222-.473.128-.712.184-.472.111-.712.156c-.283.053-.568.092-.854.131-.2.026-.4.059-.6.078-.052.005-.1.013-.154.017Q32.675,48,32,48c-.5,0-1-.03-1.491-.076-.154-.014-.3-.036-.457-.055-.34-.041-.677-.092-1.011-.155-.172-.032-.342-.066-.511-.1-.314-.07-.625-.152-.935-.241-.166-.048-.333-.091-.5-.144-.322-.1-.639-.225-.954-.35s-.608-.255-.907-.4c-.226-.107-.454-.209-.676-.326-.27-.143-.53-.3-.79-.458-.13-.078-.261-.154-.389-.236-.27-.174-.532-.358-.791-.547-.059-.043-.122-.081-.181-.125-.01-.008-.015-.021-.025-.029a15.987,15.987,0,1,1,19.768-.4ZM50,56v2H46V56ZM46,8V6h4V8Z" style="fill: inherit;"></path><path d="M32,18a13.987,13.987,0,0,0-9.056,24.657A12.886,12.886,0,0,1,31,39.047V34.4l-.538.222a4.993,4.993,0,0,1-6.29-2.215l-1.36-2.474a1,1,0,0,1,.6-1.443l2.713-.782a4.956,4.956,0,0,1,2.522-.053,5.949,5.949,0,0,1,1.072-5.4l1.5-1.877a1.034,1.034,0,0,1,1.562,0l1.5,1.877a5.945,5.945,0,0,1,1.07,5.4,4.971,4.971,0,0,1,2.523.053l2.713.782a1,1,0,0,1,.6,1.443l-1.358,2.474a5,5,0,0,1-6.291,2.216L33,34.4v4.609a13.038,13.038,0,0,1,7.911,2.84l.551.44A13.98,13.98,0,0,0,32,18ZM22,36H20V34h2Zm2,1h2v2H24Zm1-11H23V24h2Zm16,0H39V24h2ZM40,39H38V37h2Zm2-3V34h2v2Z" style="fill: inherit;"></path></g></symbol></svg>