<svg xmlns="http://www.w3.org/2000/svg" xmlns:xlink="http://www.w3.org/1999/xlink"><symbol id="icon" viewBox="0 0 100 100"><path xmlns="http://www.w3.org/2000/svg" d="M72.5,15c-10.016,0-18.52,6.579-21.428,15.642l-13.838-1.628c-0.57-0.069-1.136,0.112-1.563,0.492  S35,30.429,35,31v6v14.487L16.936,37.66c0.326-0.447,0.466-1.007,0.356-1.559l-0.694-3.491c-0.144-0.725-0.676-1.311-1.384-1.524  c-0.705-0.214-1.475-0.02-1.996,0.504l-7.636,7.68c-0.519,0.522-0.709,1.287-0.495,1.991c0.214,0.705,0.797,1.234,1.519,1.38  l3.471,0.698c0.131,0.026,0.263,0.039,0.395,0.039c0.441,0,0.867-0.154,1.218-0.425L35,71.795V83c0,1.104,0.896,2,2,2h37  c1.104,0,2-0.896,2-2V63c1.104,0,2-0.896,2-2v-1.683c9.756-2.46,17-11.308,17-21.817C95,25.093,84.907,15,72.5,15z M55.5,67  c-5.247,0-9.5-4.252-9.5-9.5s4.253-9.5,9.5-9.5s9.5,4.252,9.5,9.5S60.747,67,55.5,67z M78,53.037V53c0-1.104-0.896-2-2-2V37  c0-1.104-0.896-2-2-2H58c0-0.89-0.584-1.634-1.388-1.895C58.543,26.137,64.925,21,72.5,21C81.598,21,89,28.402,89,37.5  C89,44.667,84.398,50.765,78,53.037z" style="fill: inherit;"></path><g xmlns="http://www.w3.org/2000/svg"><path d="M59.7,59.682c0,2.109-1.881,3.818-4.2,3.818s-4.2-1.709-4.2-3.818c0-2.727,4.2-8.182,4.2-8.182   S59.7,56.955,59.7,59.682z" style="fill: inherit;"></path></g></symbol></svg>